<?xml version="1.0" standalone="no"?>
<!DOCTYPE svg PUBLIC "-//W3C//DTD SVG 20010904//EN"
 "http://www.w3.org/TR/2001/REC-SVG-20010904/DTD/svg10.dtd">
<svg version="1.0" xmlns="http://www.w3.org/2000/svg"
 width="512.000000pt" height="512.000000pt" viewBox="0 0 512.000000 512.000000"
 preserveAspectRatio="xMidYMid meet">

<g transform="translate(0.000000,512.000000) scale(0.100000,-0.100000)"
fill="#000000" stroke="none">
<path d="M1690 4341 c-69 -23 -125 -61 -167 -115 l-21 -26 -338 -3 c-372 -4
-389 -6 -501 -69 -96 -54 -189 -164 -236 -279 -22 -54 -22 -60 -25 -686 -2
-455 0 -633 8 -633 6 0 33 19 60 42 27 23 81 59 120 79 l71 36 -1 500 c0 330
3 517 11 551 13 61 77 140 143 175 39 21 53 22 362 25 l321 3 36 -45 c83 -101
233 -136 346 -80 58 29 122 101 141 160 16 48 8 170 -14 216 -25 51 -82 107
-132 129 -48 22 -147 32 -184 20z"/>
<path d="M2673 4341 c-49 -13 -119 -57 -152 -98 -42 -51 -63 -119 -59 -195 l2
-64 -308 -312 -309 -312 -339 0 c-375 0 -391 -2 -428 -62 -12 -20 -20 -51 -20
-78 l0 -44 442 -443 c244 -244 448 -442 455 -441 6 2 41 47 77 101 l66 99
-125 131 c-69 73 -199 206 -290 296 -91 91 -165 168 -165 172 0 4 93 8 206 8
114 1 215 6 225 11 10 6 169 163 354 349 l335 338 69 -5 c92 -6 156 16 216 74
26 24 55 63 65 87 23 49 26 149 8 209 -15 51 -87 131 -141 157 -48 23 -137 34
-184 22z"/>
<path d="M4590 4300 c-261 -101 -601 -288 -870 -479 -441 -313 -916 -795
-1297 -1316 -115 -158 -321 -479 -418 -653 -31 -57 -61 -102 -65 -100 -5 2
-41 47 -82 100 -357 470 -710 680 -1013 603 -125 -32 -305 -144 -366 -228 -55
-75 -29 -143 62 -167 192 -48 365 -165 585 -391 91 -95 243 -295 359 -474 181
-279 199 -301 307 -350 124 -57 247 -55 374 5 113 54 163 120 274 359 223 482
508 989 743 1326 299 427 537 704 938 1089 156 150 363 313 575 453 157 102
187 156 126 224 -45 50 -101 50 -232 -1z"/>
<path d="M4454 3271 c-108 -51 -157 -132 -159 -264 l-1 -67 -199 -200 -198
-200 -192 0 c-170 0 -194 -2 -208 -17 -12 -14 -107 -153 -150 -220 -6 -10 62
-13 330 -13 l338 0 230 232 230 232 81 -3 c70 -2 88 1 131 22 57 29 118 93
140 146 9 20 16 66 16 102 3 205 -204 338 -389 250z"/>
<path d="M4487 2146 c-57 -21 -114 -62 -140 -101 l-22 -35 -585 -2 -585 -3
-60 -106 c-33 -59 -66 -113 -73 -121 -10 -13 -10 -17 3 -21 8 -4 301 -5 651
-4 l636 3 38 -46 c21 -25 62 -59 92 -76 46 -25 63 -29 128 -29 112 1 190 47
245 147 26 45 30 64 30 128 0 64 -4 83 -30 129 -68 124 -205 180 -328 137z"/>
<path d="M2794 1354 c-30 -63 -54 -120 -54 -125 0 -5 101 -9 242 -9 l242 0
141 -140 142 -140 404 0 405 0 36 -44 c106 -126 312 -130 419 -8 106 120 96
289 -22 396 -55 49 -118 72 -196 70 -70 -2 -132 -34 -192 -100 l-50 -54 -348
0 -348 0 -142 135 -141 135 -242 0 -241 0 -55 -116z"/>
</g>
</svg>
